<mxfile host="Electron" modified="2024-04-06T07:21:53.745Z" agent="Mozilla/5.0 (Windows NT 10.0; Win64; x64) AppleWebKit/537.36 (KHTML, like Gecko) draw.io/21.6.1 Chrome/112.0.5615.204 Electron/24.6.1 Safari/537.36" etag="veMjeDj38-as4x9vzaXI" version="21.6.1" type="device">
  <diagram name="Seite-1" id="XlhNs0TyI_9xgu4hfG8v">
    <mxGraphModel dx="775" dy="496" grid="1" gridSize="10" guides="1" tooltips="1" connect="1" arrows="1" fold="1" page="1" pageScale="1" pageWidth="1169" pageHeight="827" math="0" shadow="0">
      <root>
        <mxCell id="0" />
        <mxCell id="4QULH8YT1BLBHV-vifYP-7" value="Areas" parent="0" />
        <mxCell id="4QULH8YT1BLBHV-vifYP-8" value="single Sat" style="rounded=0;whiteSpace=wrap;html=1;fontFamily=Helvetica;fontSize=11;fontColor=#FFFFFF;fillColor=#666666;verticalAlign=top;strokeColor=none;" parent="4QULH8YT1BLBHV-vifYP-7" vertex="1">
          <mxGeometry x="250" y="210" width="220" height="630" as="geometry" />
        </mxCell>
        <mxCell id="4QULH8YT1BLBHV-vifYP-15" value="double esat with one default relation" style="rounded=0;whiteSpace=wrap;html=1;fontFamily=Helvetica;fontSize=11;fontColor=#FFFFFF;fillColor=#808080;verticalAlign=top;align=right;strokeColor=none;" parent="4QULH8YT1BLBHV-vifYP-7" vertex="1">
          <mxGeometry x="470" y="210" width="380" height="160" as="geometry" />
        </mxCell>
        <mxCell id="4QULH8YT1BLBHV-vifYP-26" value="double esat" style="rounded=0;whiteSpace=wrap;html=1;fontFamily=Helvetica;fontSize=11;fontColor=#FFFFFF;fillColor=#999999;verticalAlign=bottom;strokeColor=none;align=right;" parent="4QULH8YT1BLBHV-vifYP-7" vertex="1">
          <mxGeometry x="470" y="370" width="380" height="130" as="geometry" />
        </mxCell>
        <mxCell id="4QULH8YT1BLBHV-vifYP-47" value="Multi relation from one link" style="rounded=0;whiteSpace=wrap;html=1;fontFamily=Helvetica;fontSize=11;fontColor=#FFFFFF;fillColor=#999999;verticalAlign=top;strokeColor=none;align=right;" parent="4QULH8YT1BLBHV-vifYP-7" vertex="1">
          <mxGeometry x="470" y="650" width="380" height="190" as="geometry" />
        </mxCell>
        <mxCell id="4QULH8YT1BLBHV-vifYP-76" value="Dependend child key link" style="rounded=0;whiteSpace=wrap;html=1;fontFamily=Helvetica;fontSize=11;fontColor=#FFFFFF;fillColor=#808080;verticalAlign=top;strokeColor=none;align=right;" parent="4QULH8YT1BLBHV-vifYP-7" vertex="1">
          <mxGeometry x="470" y="500" width="380" height="150" as="geometry" />
        </mxCell>
        <mxCell id="4QULH8YT1BLBHV-vifYP-82" value="Reference Table" style="rounded=0;whiteSpace=wrap;html=1;fontFamily=Helvetica;fontSize=11;fontColor=#FFFFFF;fillColor=#808080;verticalAlign=top;strokeColor=none;align=left;" parent="4QULH8YT1BLBHV-vifYP-7" vertex="1">
          <mxGeometry x="250" y="920" width="220" height="110" as="geometry" />
        </mxCell>
        <mxCell id="4QULH8YT1BLBHV-vifYP-83" value="EEE_REF" style="rounded=0;whiteSpace=wrap;html=1;strokeColor=#000000;strokeWidth=2;fillColor=#d5e8d4;fontFamily=Helvetica;fontSize=11;fontColor=default;" parent="4QULH8YT1BLBHV-vifYP-7" vertex="1">
          <mxGeometry x="264.29" y="960" width="120" height="40" as="geometry" />
        </mxCell>
        <mxCell id="1" value="Main Model" parent="0" />
        <mxCell id="4QULH8YT1BLBHV-vifYP-1" value="AAA&lt;br&gt;(F1_AAABBBCCC_BK1,&lt;br&gt;F2_AAA_BK2F)" style="strokeWidth=2;html=1;shape=mxgraph.flowchart.start_1;whiteSpace=wrap;strokeColor=none;fontColor=#ffffff;fillColor=#002C82;fontFamily=Helvetica;fontSize=11;" parent="1" vertex="1">
          <mxGeometry x="270" y="570" width="150" height="60" as="geometry" />
        </mxCell>
        <mxCell id="4QULH8YT1BLBHV-vifYP-2" value="AAA_P1" style="rounded=1;whiteSpace=wrap;html=1;strokeColor=#36393d;fillColor=#FFF3A8;strokeWidth=2;" parent="1" vertex="1">
          <mxGeometry x="280" y="510" width="130" height="30" as="geometry" />
        </mxCell>
        <mxCell id="4QULH8YT1BLBHV-vifYP-4" style="edgeStyle=orthogonalEdgeStyle;rounded=1;orthogonalLoop=1;jettySize=auto;html=1;endArrow=none;endFill=0;jumpStyle=none;strokeWidth=2;" parent="1" source="4QULH8YT1BLBHV-vifYP-2" target="4QULH8YT1BLBHV-vifYP-1" edge="1">
          <mxGeometry relative="1" as="geometry">
            <mxPoint x="70" y="240" as="sourcePoint" />
            <mxPoint x="160" y="380" as="targetPoint" />
          </mxGeometry>
        </mxCell>
        <mxCell id="4QULH8YT1BLBHV-vifYP-16" value="BBB&lt;br&gt;(F1_AAABBBCCC_BK1,&lt;br style=&quot;border-color: var(--border-color);&quot;&gt;F3F4F5F6_BBB_BK2F)" style="strokeWidth=2;html=1;shape=mxgraph.flowchart.start_1;whiteSpace=wrap;strokeColor=none;fontColor=#ffffff;fillColor=#002C82;fontFamily=Helvetica;fontSize=11;" parent="1" vertex="1">
          <mxGeometry x="660" y="330" width="170" height="60" as="geometry" />
        </mxCell>
        <mxCell id="4QULH8YT1BLBHV-vifYP-17" style="edgeStyle=orthogonalEdgeStyle;shape=connector;rounded=1;jumpStyle=none;orthogonalLoop=1;jettySize=auto;html=1;labelBackgroundColor=default;strokeColor=default;strokeWidth=2;fontFamily=Helvetica;fontSize=11;fontColor=default;endArrow=none;endFill=0;" parent="1" source="4QULH8YT1BLBHV-vifYP-18" edge="1" target="4QULH8YT1BLBHV-vifYP-16">
          <mxGeometry relative="1" as="geometry">
            <mxPoint x="660" y="330" as="targetPoint" />
          </mxGeometry>
        </mxCell>
        <mxCell id="4QULH8YT1BLBHV-vifYP-18" value="AAA_BBB_1" style="verticalLabelPosition=middle;verticalAlign=middle;html=1;shape=hexagon;perimeter=hexagonPerimeter2;arcSize=6;size=0.16666666666666666;fillColor=#cce5ff;strokeColor=#36393d;strokeWidth=2;fontFamily=Helvetica;fontSize=11;fontColor=default;labelPosition=center;align=center;" parent="1" vertex="1">
          <mxGeometry x="500" y="310" width="120" height="40" as="geometry" />
        </mxCell>
        <mxCell id="4QULH8YT1BLBHV-vifYP-19" style="edgeStyle=orthogonalEdgeStyle;shape=connector;rounded=1;jumpStyle=none;orthogonalLoop=1;jettySize=auto;html=1;labelBackgroundColor=default;strokeColor=default;strokeWidth=2;fontFamily=Helvetica;fontSize=11;fontColor=default;endArrow=none;endFill=0;" parent="1" source="4QULH8YT1BLBHV-vifYP-1" target="4QULH8YT1BLBHV-vifYP-18" edge="1">
          <mxGeometry relative="1" as="geometry">
            <mxPoint x="450" y="330" as="sourcePoint" />
            <Array as="points">
              <mxPoint x="440" y="600" />
              <mxPoint x="440" y="330" />
            </Array>
          </mxGeometry>
        </mxCell>
        <mxCell id="4QULH8YT1BLBHV-vifYP-22" style="edgeStyle=orthogonalEdgeStyle;shape=connector;rounded=1;jumpStyle=none;orthogonalLoop=1;jettySize=auto;html=1;labelBackgroundColor=default;strokeColor=default;strokeWidth=2;fontFamily=Helvetica;fontSize=11;fontColor=default;endArrow=none;endFill=0;exitX=0;exitY=0.5;exitDx=0;exitDy=0;" parent="1" source="4QULH8YT1BLBHV-vifYP-21" target="4QULH8YT1BLBHV-vifYP-18" edge="1">
          <mxGeometry relative="1" as="geometry" />
        </mxCell>
        <mxCell id="4QULH8YT1BLBHV-vifYP-21" value="AAA_BBB_DFT" style="rounded=1;whiteSpace=wrap;html=1;strokeColor=#36393d;fillColor=#cce5ff;strokeWidth=2;fontSize=11;arcSize=24;" parent="1" vertex="1">
          <mxGeometry x="585" y="240" width="95" height="30" as="geometry" />
        </mxCell>
        <mxCell id="4QULH8YT1BLBHV-vifYP-25" style="shape=connector;rounded=1;jumpStyle=none;orthogonalLoop=1;jettySize=auto;html=1;labelBackgroundColor=default;strokeColor=default;strokeWidth=2;fontFamily=Helvetica;fontSize=11;fontColor=default;endArrow=none;endFill=0;edgeStyle=orthogonalEdgeStyle;" parent="1" source="4QULH8YT1BLBHV-vifYP-23" target="4QULH8YT1BLBHV-vifYP-18" edge="1">
          <mxGeometry relative="1" as="geometry">
            <Array as="points">
              <mxPoint x="560" y="285" />
            </Array>
          </mxGeometry>
        </mxCell>
        <mxCell id="4QULH8YT1BLBHV-vifYP-23" value="AAA_BBB_TTT" style="rounded=1;whiteSpace=wrap;html=1;strokeColor=#36393d;fillColor=#cce5ff;strokeWidth=2;fontSize=11;arcSize=30;" parent="1" vertex="1">
          <mxGeometry x="585" y="270" width="95" height="30" as="geometry" />
        </mxCell>
        <mxCell id="4QULH8YT1BLBHV-vifYP-28" style="edgeStyle=orthogonalEdgeStyle;shape=connector;rounded=1;jumpStyle=none;orthogonalLoop=1;jettySize=auto;html=1;labelBackgroundColor=default;strokeColor=default;strokeWidth=2;fontFamily=Helvetica;fontSize=11;fontColor=default;endArrow=none;endFill=0;entryX=0;entryY=0.5;entryDx=0;entryDy=0;entryPerimeter=0;" parent="1" source="4QULH8YT1BLBHV-vifYP-29" target="4QULH8YT1BLBHV-vifYP-16" edge="1">
          <mxGeometry relative="1" as="geometry">
            <mxPoint x="660" y="410" as="targetPoint" />
          </mxGeometry>
        </mxCell>
        <mxCell id="4QULH8YT1BLBHV-vifYP-29" value="AAA_BBB_2" style="verticalLabelPosition=middle;verticalAlign=middle;html=1;shape=hexagon;perimeter=hexagonPerimeter2;arcSize=6;size=0.16666666666666666;fillColor=#cce5ff;strokeColor=#36393d;strokeWidth=2;fontFamily=Helvetica;fontSize=11;fontColor=default;labelPosition=center;align=center;" parent="1" vertex="1">
          <mxGeometry x="500" y="374" width="120" height="40" as="geometry" />
        </mxCell>
        <mxCell id="4QULH8YT1BLBHV-vifYP-30" style="edgeStyle=orthogonalEdgeStyle;shape=connector;rounded=1;jumpStyle=none;orthogonalLoop=1;jettySize=auto;html=1;labelBackgroundColor=default;strokeColor=default;strokeWidth=2;fontFamily=Helvetica;fontSize=11;fontColor=default;endArrow=none;endFill=0;" parent="1" source="4QULH8YT1BLBHV-vifYP-1" target="4QULH8YT1BLBHV-vifYP-29" edge="1">
          <mxGeometry relative="1" as="geometry">
            <mxPoint x="450" y="410" as="sourcePoint" />
            <Array as="points">
              <mxPoint x="440" y="600" />
              <mxPoint x="440" y="394" />
            </Array>
          </mxGeometry>
        </mxCell>
        <mxCell id="4QULH8YT1BLBHV-vifYP-43" value="PPP" style="edgeStyle=orthogonalEdgeStyle;shape=connector;rounded=1;jumpStyle=none;orthogonalLoop=1;jettySize=auto;html=1;entryX=0;entryY=0.5;entryDx=0;entryDy=0;entryPerimeter=0;labelBackgroundColor=none;strokeColor=default;strokeWidth=2;fontFamily=Helvetica;fontSize=11;fontColor=default;endArrow=none;endFill=0;exitX=1;exitY=0.25;exitDx=0;exitDy=0;fontStyle=1" parent="1" source="4QULH8YT1BLBHV-vifYP-40" target="4QULH8YT1BLBHV-vifYP-41" edge="1">
          <mxGeometry x="-0.4627" y="10" relative="1" as="geometry">
            <mxPoint as="offset" />
          </mxGeometry>
        </mxCell>
        <mxCell id="4QULH8YT1BLBHV-vifYP-45" style="edgeStyle=elbowEdgeStyle;shape=connector;rounded=1;jumpStyle=none;orthogonalLoop=1;jettySize=auto;html=1;labelBackgroundColor=default;strokeColor=default;strokeWidth=2;fontFamily=Helvetica;fontSize=11;fontColor=default;endArrow=none;endFill=0;entryX=1;entryY=0.5;entryDx=0;entryDy=0;entryPerimeter=0;" parent="1" source="4QULH8YT1BLBHV-vifYP-40" target="4QULH8YT1BLBHV-vifYP-1" edge="1">
          <mxGeometry relative="1" as="geometry">
            <mxPoint x="452.8600000000001" y="640" as="targetPoint" />
            <Array as="points">
              <mxPoint x="440" y="640" />
            </Array>
          </mxGeometry>
        </mxCell>
        <mxCell id="4QULH8YT1BLBHV-vifYP-40" value="AAA_DDD" style="verticalLabelPosition=middle;verticalAlign=middle;html=1;shape=hexagon;perimeter=hexagonPerimeter2;arcSize=6;size=0.16666666666666666;fillColor=#cce5ff;strokeColor=#36393d;strokeWidth=2;fontFamily=Helvetica;fontSize=11;fontColor=default;labelPosition=center;align=center;" parent="1" vertex="1">
          <mxGeometry x="510" y="740" width="120" height="70" as="geometry" />
        </mxCell>
        <mxCell id="4QULH8YT1BLBHV-vifYP-41" value="DDD_hub&lt;br&gt;(F14F15_DDD_BK1F)" style="strokeWidth=2;html=1;shape=mxgraph.flowchart.start_1;whiteSpace=wrap;strokeColor=none;fontColor=#ffffff;fillColor=#002C82;fontFamily=Helvetica;fontSize=11;" parent="1" vertex="1">
          <mxGeometry x="690" y="740" width="150" height="60" as="geometry" />
        </mxCell>
        <mxCell id="4QULH8YT1BLBHV-vifYP-81" style="edgeStyle=orthogonalEdgeStyle;shape=connector;rounded=1;jumpStyle=none;orthogonalLoop=1;jettySize=auto;html=1;labelBackgroundColor=default;strokeColor=default;strokeWidth=2;fontFamily=Helvetica;fontSize=11;fontColor=default;endArrow=none;endFill=0;" parent="1" source="4QULH8YT1BLBHV-vifYP-77" target="4QULH8YT1BLBHV-vifYP-78" edge="1">
          <mxGeometry relative="1" as="geometry" />
        </mxCell>
        <mxCell id="4QULH8YT1BLBHV-vifYP-77" value="CCC_hub&lt;br&gt;(F1_AAABBBCCC_BK1,&lt;br&gt;F20_CCC_BK2F)&lt;br&gt;[F21_CCC_CU1F]" style="strokeWidth=2;html=1;shape=mxgraph.flowchart.start_1;whiteSpace=wrap;strokeColor=none;fontColor=#ffffff;fillColor=#002C82;fontFamily=Helvetica;fontSize=11;" parent="1" vertex="1">
          <mxGeometry x="680" y="560" width="160" height="80" as="geometry" />
        </mxCell>
        <mxCell id="4QULH8YT1BLBHV-vifYP-78" value="AAA_CCC&lt;br&gt;(F13_AAA_CCC_DC1F)" style="verticalLabelPosition=middle;verticalAlign=middle;html=1;shape=hexagon;perimeter=hexagonPerimeter2;arcSize=6;size=0.16666666666666666;fillColor=#cce5ff;strokeColor=#36393d;strokeWidth=2;fontFamily=Helvetica;fontSize=11;fontColor=default;labelPosition=center;align=center;" parent="1" vertex="1">
          <mxGeometry x="500" y="570" width="140" height="60" as="geometry" />
        </mxCell>
        <mxCell id="4QULH8YT1BLBHV-vifYP-79" style="edgeStyle=elbowEdgeStyle;shape=connector;rounded=1;jumpStyle=none;orthogonalLoop=1;jettySize=auto;html=1;entryX=0;entryY=0.5;entryDx=0;entryDy=0;labelBackgroundColor=default;strokeColor=default;strokeWidth=2;fontFamily=Helvetica;fontSize=11;fontColor=default;endArrow=none;endFill=0;" parent="1" target="4QULH8YT1BLBHV-vifYP-78" edge="1">
          <mxGeometry relative="1" as="geometry">
            <mxPoint x="420" y="600" as="sourcePoint" />
            <mxPoint x="523" y="800" as="targetPoint" />
            <Array as="points">
              <mxPoint x="440" y="570" />
            </Array>
          </mxGeometry>
        </mxCell>
        <mxCell id="n3daLleqbwvh_uXPeiJ--3" style="edgeStyle=orthogonalEdgeStyle;shape=connector;rounded=1;jumpStyle=none;orthogonalLoop=1;jettySize=auto;html=1;labelBackgroundColor=default;strokeColor=default;strokeWidth=2;fontFamily=Helvetica;fontSize=11;fontColor=default;endArrow=none;endFill=0;exitX=0;exitY=0.5;exitDx=0;exitDy=0;" parent="1" source="n3daLleqbwvh_uXPeiJ--1" target="4QULH8YT1BLBHV-vifYP-29" edge="1">
          <mxGeometry relative="1" as="geometry">
            <Array as="points" />
          </mxGeometry>
        </mxCell>
        <mxCell id="n3daLleqbwvh_uXPeiJ--1" value="AAA_BBB_UUU" style="rounded=1;whiteSpace=wrap;html=1;strokeColor=#36393d;fillColor=#cce5ff;strokeWidth=2;fontSize=11;arcSize=24;" parent="1" vertex="1">
          <mxGeometry x="585" y="460" width="95" height="30" as="geometry" />
        </mxCell>
        <mxCell id="n3daLleqbwvh_uXPeiJ--4" style="edgeStyle=orthogonalEdgeStyle;shape=connector;rounded=1;jumpStyle=none;orthogonalLoop=1;jettySize=auto;html=1;labelBackgroundColor=default;strokeColor=default;strokeWidth=2;fontFamily=Helvetica;fontSize=11;fontColor=default;endArrow=none;endFill=0;exitX=0;exitY=0.5;exitDx=0;exitDy=0;" parent="1" source="n3daLleqbwvh_uXPeiJ--2" target="4QULH8YT1BLBHV-vifYP-29" edge="1">
          <mxGeometry relative="1" as="geometry">
            <mxPoint x="580" y="445" as="sourcePoint" />
            <Array as="points" />
          </mxGeometry>
        </mxCell>
        <mxCell id="n3daLleqbwvh_uXPeiJ--5" style="edgeStyle=orthogonalEdgeStyle;shape=connector;rounded=1;jumpStyle=none;orthogonalLoop=1;jettySize=auto;html=1;entryX=0;entryY=0.5;entryDx=0;entryDy=0;entryPerimeter=0;labelBackgroundColor=default;strokeColor=default;strokeWidth=2;fontFamily=Helvetica;fontSize=11;fontColor=default;endArrow=none;endFill=0;exitX=1;exitY=0.75;exitDx=0;exitDy=0;" parent="1" source="4QULH8YT1BLBHV-vifYP-40" target="4QULH8YT1BLBHV-vifYP-41" edge="1">
          <mxGeometry relative="1" as="geometry">
            <mxPoint x="634" y="740" as="sourcePoint" />
            <mxPoint x="720" y="750" as="targetPoint" />
          </mxGeometry>
        </mxCell>
        <mxCell id="n3daLleqbwvh_uXPeiJ--6" value="QQQ" style="edgeLabel;html=1;align=center;verticalAlign=middle;resizable=0;points=[];fontSize=11;fontFamily=Helvetica;fontColor=default;labelBackgroundColor=none;fontStyle=1" parent="n3daLleqbwvh_uXPeiJ--5" vertex="1" connectable="0">
          <mxGeometry x="-0.3335" relative="1" as="geometry">
            <mxPoint x="-9" y="10" as="offset" />
          </mxGeometry>
        </mxCell>
        <mxCell id="n3daLleqbwvh_uXPeiJ--8" style="edgeStyle=none;shape=connector;rounded=1;jumpStyle=none;orthogonalLoop=1;jettySize=auto;html=1;labelBackgroundColor=default;strokeColor=default;strokeWidth=2;fontFamily=Helvetica;fontSize=11;fontColor=default;endArrow=none;endFill=0;" parent="1" source="n3daLleqbwvh_uXPeiJ--7" target="4QULH8YT1BLBHV-vifYP-78" edge="1">
          <mxGeometry relative="1" as="geometry" />
        </mxCell>
        <mxCell id="n3daLleqbwvh_uXPeiJ--7" value="AAA_CCC_P1" style="rounded=1;whiteSpace=wrap;html=1;strokeColor=#36393d;fillColor=#FFF3A8;strokeWidth=2;" parent="1" vertex="1">
          <mxGeometry x="510" y="520" width="120" height="30" as="geometry" />
        </mxCell>
        <mxCell id="n3daLleqbwvh_uXPeiJ--10" style="edgeStyle=none;shape=connector;rounded=1;jumpStyle=none;orthogonalLoop=1;jettySize=auto;html=1;labelBackgroundColor=default;strokeColor=default;strokeWidth=2;fontFamily=Helvetica;fontSize=11;fontColor=default;endArrow=none;endFill=0;" parent="1" source="n3daLleqbwvh_uXPeiJ--9" target="4QULH8YT1BLBHV-vifYP-40" edge="1">
          <mxGeometry relative="1" as="geometry" />
        </mxCell>
        <mxCell id="n3daLleqbwvh_uXPeiJ--9" value="AAA_DDD_P1" style="rounded=1;whiteSpace=wrap;html=1;strokeColor=#36393d;fillColor=#FFF3A8;strokeWidth=2;" parent="1" vertex="1">
          <mxGeometry x="510" y="680" width="120" height="30" as="geometry" />
        </mxCell>
        <mxCell id="n3daLleqbwvh_uXPeiJ--2" value="AAA_BBB_VVV" style="rounded=1;whiteSpace=wrap;html=1;strokeColor=#36393d;fillColor=#cce5ff;strokeWidth=2;fontSize=11;arcSize=30;" parent="1" vertex="1">
          <mxGeometry x="585" y="430" width="95" height="30" as="geometry" />
        </mxCell>
        <mxCell id="zSbgkhFZUvIbDj1bJJ0y-4" style="edgeStyle=orthogonalEdgeStyle;shape=connector;rounded=1;jumpStyle=none;orthogonalLoop=1;jettySize=auto;html=1;labelBackgroundColor=default;strokeColor=default;strokeWidth=2;fontFamily=Helvetica;fontSize=11;fontColor=default;endArrow=none;endFill=0;" edge="1" parent="1" source="zSbgkhFZUvIbDj1bJJ0y-3" target="4QULH8YT1BLBHV-vifYP-16">
          <mxGeometry relative="1" as="geometry" />
        </mxCell>
        <mxCell id="zSbgkhFZUvIbDj1bJJ0y-3" value="BBB_P1&lt;br style=&quot;font-size: 11px;&quot;&gt;{DFT,UUU}" style="rounded=1;whiteSpace=wrap;html=1;strokeColor=#36393d;fillColor=#FFF3A8;strokeWidth=2;fontSize=11;arcSize=30;" vertex="1" parent="1">
          <mxGeometry x="700" y="270" width="90" height="30" as="geometry" />
        </mxCell>
      </root>
    </mxGraphModel>
  </diagram>
</mxfile>
